<svg width="40" height="40" viewBox="0 0 40 40" fill="none" xmlns="http://www.w3.org/2000/svg">
<path d="M24.9458 36C23.4911 36.0024 22.0864 35.4692 20.9998 34.502V26H24.9998C25.7954 26 26.5585 25.6839 27.1211 25.1213C27.6837 24.5587 27.9998 23.7956 27.9998 23V21.83C28.667 21.5941 29.2293 21.1299 29.5874 20.5195C29.9455 19.9091 30.0762 19.1917 29.9566 18.4942C29.8369 17.7967 29.4745 17.164 28.9334 16.7079C28.3924 16.2517 27.7075 16.0015 26.9998 16.0015C26.2921 16.0015 25.6072 16.2517 25.0661 16.7079C24.525 17.164 24.1626 17.7967 24.043 18.4942C23.9233 19.1917 24.0541 19.9091 24.4121 20.5195C24.7702 21.1299 25.3326 21.5941 25.9998 21.83V23C25.9998 23.2652 25.8944 23.5195 25.7069 23.7071C25.5193 23.8946 25.265 24 24.9998 24H20.9998V4.92398C21.6573 4.4464 22.4244 4.14186 23.2304 4.03836C24.0365 3.93487 24.8556 4.03574 25.6125 4.33171C26.3693 4.62769 27.0396 5.10924 27.5616 5.73208C28.0836 6.35492 28.4406 7.09904 28.5998 7.89598L28.8498 9.14998L29.6618 9.31198C30.8848 9.5573 31.9852 10.2185 32.776 11.1832C33.5668 12.1479 33.9992 13.3566 33.9998 14.604V15C33.9998 16.452 33.3798 17.76 32.3898 18.674C33.599 19.2732 34.5916 20.2341 35.2296 21.4233C35.8677 22.6124 36.1196 23.9708 35.9502 25.3097C35.7809 26.6486 35.1988 27.9015 34.2847 28.8943C33.3707 29.8872 32.1701 30.5707 30.8498 30.85L30.7758 31.22C30.5073 32.5683 29.7794 33.7818 28.7163 34.6534C27.6531 35.5251 26.3206 36.001 24.9458 36ZM16.1538 3.99998C17.2178 3.99998 18.1998 4.34198 18.9998 4.92398V12H17.8298C17.5939 11.3328 17.1297 10.7704 16.5193 10.4123C15.9089 10.0543 15.1915 9.92351 14.494 10.0432C13.7965 10.1629 13.1638 10.5252 12.7077 11.0663C12.2515 11.6074 12.0013 12.2923 12.0013 13C12.0013 13.7077 12.2515 14.3926 12.7077 14.9336C13.1638 15.4747 13.7965 15.8371 14.494 15.9568C15.1915 16.0764 15.9089 15.9457 16.5193 15.5876C17.1297 15.2295 17.5939 14.6672 17.8298 14H18.9998V34.502C18.2173 35.1961 17.2657 35.6715 16.2408 35.8803C15.216 36.089 14.1541 36.0238 13.1626 35.6911C12.171 35.3584 11.2847 34.77 10.5931 33.9854C9.90157 33.2007 9.42923 32.2475 9.22377 31.222L9.14977 30.85C8.01702 30.6101 6.96897 30.0718 6.11412 29.2909C5.25927 28.5099 4.62869 27.5147 4.28766 26.4082C3.94663 25.3017 3.90755 24.1241 4.17447 22.9974C4.44138 21.8708 5.00458 20.8359 5.80577 20H12.9998C13.265 20 13.5193 20.1053 13.7069 20.2929C13.8944 20.4804 13.9998 20.7348 13.9998 21V22.17C13.3326 22.4059 12.7702 22.87 12.4121 23.4805C12.0541 24.0909 11.9233 24.8082 12.043 25.5057C12.1626 26.2032 12.525 26.8359 13.0661 27.2921C13.6072 27.7482 14.2921 27.9984 14.9998 27.9984C15.7075 27.9984 16.3924 27.7482 16.9334 27.2921C17.4745 26.8359 17.8369 26.2032 17.9566 25.5057C18.0762 24.8082 17.9455 24.0909 17.5874 23.4805C17.2293 22.87 16.667 22.4059 15.9998 22.17V21C15.9998 20.2043 15.6837 19.4413 15.1211 18.8787C14.5585 18.316 13.7954 18 12.9998 18H6.99977C6.35066 17.1345 5.99977 16.0818 5.99977 15V14.604C6.00036 13.3566 6.43278 12.1479 7.22357 11.1832C8.01436 10.2185 9.11474 9.5573 10.3378 9.31198L11.1498 9.15198L11.3998 7.89598C11.6184 6.79651 12.2119 5.80703 13.0789 5.09648C13.946 4.38592 15.0328 3.99837 16.1538 3.99998ZM14.9998 12C15.265 12 15.5193 12.1053 15.7069 12.2929C15.8944 12.4804 15.9998 12.7348 15.9998 13C15.9998 13.2652 15.8944 13.5195 15.7069 13.7071C15.5193 13.8946 15.265 14 14.9998 14C14.7346 14 14.4802 13.8946 14.2927 13.7071C14.1051 13.5195 13.9998 13.2652 13.9998 13C13.9998 12.7348 14.1051 12.4804 14.2927 12.2929C14.4802 12.1053 14.7346 12 14.9998 12ZM14.9998 26C15.265 26 15.5193 25.8946 15.7069 25.7071C15.8944 25.5195 15.9998 25.2652 15.9998 25C15.9998 24.7348 15.8944 24.4804 15.7069 24.2929C15.5193 24.1053 15.265 24 14.9998 24C14.7346 24 14.4802 24.1053 14.2927 24.2929C14.1051 24.4804 13.9998 24.7348 13.9998 25C13.9998 25.2652 14.1051 25.5195 14.2927 25.7071C14.4802 25.8946 14.7346 26 14.9998 26ZM26.9998 20C27.265 20 27.5193 19.8946 27.7069 19.7071C27.8944 19.5195 27.9998 19.2652 27.9998 19C27.9998 18.7348 27.8944 18.4804 27.7069 18.2929C27.5193 18.1053 27.265 18 26.9998 18C26.7346 18 26.4802 18.1053 26.2927 18.2929C26.1051 18.4804 25.9998 18.7348 25.9998 19C25.9998 19.2652 26.1051 19.5195 26.2927 19.7071C26.4802 19.8946 26.7346 20 26.9998 20Z" fill="#580109"/>
</svg>
