<svg width="71" height="40" viewBox="0 0 71 40" fill="none" xmlns="http://www.w3.org/2000/svg">
<path d="M52.84 30H40.84V28.56H42.328V14.64H40.84V13.2H45.832V14.64H43.84V28.56H51.376V26.304H52.84V30ZM63.9355 30H58.1275V28.56H59.3995V14.64H58.1275V13.2H63.5275C64.2795 13.2 64.9755 13.28 65.6155 13.44C66.2555 13.6 66.7995 13.848 67.2475 14.184C67.6955 14.52 68.0395 14.96 68.2795 15.504C68.5355 16.032 68.6635 16.664 68.6635 17.4C68.6635 18.392 68.4235 19.264 67.9435 20.016C67.4635 20.768 66.7355 21.28 65.7595 21.552C66.2075 21.648 66.6475 21.808 67.0795 22.032C67.5115 22.256 67.8955 22.544 68.2315 22.896C68.5355 23.248 68.7835 23.656 68.9755 24.12C69.1675 24.584 69.2635 25.104 69.2635 25.68C69.2635 26.4 69.1115 27.032 68.8075 27.576C68.5195 28.104 68.1355 28.544 67.6555 28.896C67.1435 29.264 66.5675 29.544 65.9275 29.736C65.2875 29.912 64.6235 30 63.9355 30ZM60.9115 22.272V28.56H63.8155C64.3595 28.56 64.8635 28.496 65.3275 28.368C65.8075 28.24 66.2315 28.04 66.5995 27.768C66.9515 27.528 67.2315 27.216 67.4395 26.832C67.6475 26.448 67.7515 26 67.7515 25.488C67.7515 24.928 67.6315 24.448 67.3915 24.048C67.1515 23.632 66.8395 23.296 66.4555 23.04C66.0395 22.784 65.5675 22.592 65.0395 22.464C64.5275 22.336 63.9915 22.272 63.4315 22.272H60.9115ZM60.9115 14.64V20.832H63.7675C64.8075 20.832 65.6315 20.536 66.2395 19.944C66.8475 19.336 67.1515 18.552 67.1515 17.592C67.1515 17.048 67.0555 16.584 66.8635 16.2C66.6875 15.816 66.4395 15.512 66.1195 15.288C65.8155 15.064 65.4555 14.904 65.0395 14.808C64.6395 14.696 64.1915 14.64 63.6955 14.64H60.9115Z" fill="#BAB1B1"/>
<path d="M24.946 36C23.4913 36.0024 22.0866 35.4692 21 34.502V26H25C25.7957 26 26.5587 25.6839 27.1213 25.1213C27.6839 24.5587 28 23.7956 28 23V21.83C28.6672 21.5941 29.2296 21.1299 29.5876 20.5195C29.9457 19.9091 30.0765 19.1918 29.9568 18.4943C29.8371 17.7968 29.4747 17.164 28.9337 16.7079C28.3926 16.2518 27.7077 16.0016 27 16.0016C26.2923 16.0016 25.6074 16.2518 25.0664 16.7079C24.5253 17.164 24.1629 17.7968 24.0432 18.4943C23.9235 19.1918 24.0543 19.9091 24.4124 20.5195C24.7705 21.1299 25.3328 21.5941 26 21.83V23C26 23.2652 25.8947 23.5196 25.7071 23.7071C25.5196 23.8946 25.2652 24 25 24H21V4.924C21.6575 4.44642 22.4246 4.14188 23.2307 4.03838C24.0367 3.93489 24.8559 4.03577 25.6127 4.33174C26.3696 4.62771 27.0398 5.10927 27.5619 5.73211C28.0839 6.35495 28.4409 7.09906 28.6 7.896L28.85 9.15L29.662 9.312C30.885 9.55732 31.9854 10.2185 32.7762 11.1832C33.567 12.1479 33.9994 13.3566 34 14.604V15C34 16.452 33.38 17.76 32.39 18.674C33.5992 19.2732 34.5918 20.2341 35.2299 21.4233C35.8679 22.6125 36.1198 23.9708 35.9505 25.3097C35.7811 26.6486 35.199 27.9015 34.285 28.8943C33.3709 29.8872 32.1703 30.5707 30.85 30.85L30.776 31.22C30.5075 32.5683 29.7797 33.7818 28.7165 34.6534C27.6534 35.5251 26.3208 36.001 24.946 36ZM16.154 4C17.218 4 18.2 4.342 19 4.924V12H17.83C17.5941 11.3328 17.1299 10.7704 16.5195 10.4124C15.9091 10.0543 15.1918 9.92353 14.4943 10.0432C13.7968 10.1629 13.1641 10.5253 12.7079 11.0663C12.2518 11.6074 12.0016 12.2923 12.0016 13C12.0016 13.7077 12.2518 14.3926 12.7079 14.9337C13.1641 15.4747 13.7968 15.8371 14.4943 15.9568C15.1918 16.0765 15.9091 15.9457 16.5195 15.5876C17.1299 15.2296 17.5941 14.6672 17.83 14H19V34.502C18.2176 35.1961 17.2659 35.6715 16.2411 35.8803C15.2162 36.0891 14.1544 36.0238 13.1628 35.6911C12.1712 35.3584 11.2849 34.7701 10.5934 33.9854C9.90182 33.2007 9.42948 32.2475 9.22401 31.222L9.15001 30.85C8.01727 30.6101 6.96922 30.0719 6.11437 29.2909C5.25952 28.51 4.62894 27.5147 4.28791 26.4082C3.94688 25.3017 3.9078 24.1241 4.17471 22.9975C4.44162 21.8708 5.00483 20.8359 5.80601 20H13C13.2652 20 13.5196 20.1054 13.7071 20.2929C13.8947 20.4804 14 20.7348 14 21V22.17C13.3328 22.4059 12.7705 22.8701 12.4124 23.4805C12.0543 24.0909 11.9235 24.8082 12.0432 25.5057C12.1629 26.2032 12.5253 26.836 13.0664 27.2921C13.6074 27.7482 14.2923 27.9984 15 27.9984C15.7077 27.9984 16.3926 27.7482 16.9337 27.2921C17.4747 26.836 17.8371 26.2032 17.9568 25.5057C18.0765 24.8082 17.9457 24.0909 17.5876 23.4805C17.2296 22.8701 16.6672 22.4059 16 22.17V21C16 20.2044 15.6839 19.4413 15.1213 18.8787C14.5587 18.3161 13.7957 18 13 18H7.00001C6.3509 17.1345 6.00001 16.0819 6.00001 15V14.604C6.0006 13.3566 6.43302 12.1479 7.22381 11.1832C8.0146 10.2185 9.11498 9.55732 10.338 9.312L11.15 9.152L11.4 7.896C11.6187 6.79653 12.2122 5.80705 13.0792 5.0965C13.9462 4.38595 15.033 3.99839 16.154 4ZM15 12C15.2652 12 15.5196 12.1054 15.7071 12.2929C15.8947 12.4804 16 12.7348 16 13C16 13.2652 15.8947 13.5196 15.7071 13.7071C15.5196 13.8946 15.2652 14 15 14C14.7348 14 14.4804 13.8946 14.2929 13.7071C14.1054 13.5196 14 13.2652 14 13C14 12.7348 14.1054 12.4804 14.2929 12.2929C14.4804 12.1054 14.7348 12 15 12ZM15 26C15.2652 26 15.5196 25.8946 15.7071 25.7071C15.8947 25.5196 16 25.2652 16 25C16 24.7348 15.8947 24.4804 15.7071 24.2929C15.5196 24.1054 15.2652 24 15 24C14.7348 24 14.4804 24.1054 14.2929 24.2929C14.1054 24.4804 14 24.7348 14 25C14 25.2652 14.1054 25.5196 14.2929 25.7071C14.4804 25.8946 14.7348 26 15 26ZM27 20C27.2652 20 27.5196 19.8946 27.7071 19.7071C27.8947 19.5196 28 19.2652 28 19C28 18.7348 27.8947 18.4804 27.7071 18.2929C27.5196 18.1054 27.2652 18 27 18C26.7348 18 26.4804 18.1054 26.2929 18.2929C26.1054 18.4804 26 18.7348 26 19C26 19.2652 26.1054 19.5196 26.2929 19.7071C26.4804 19.8946 26.7348 20 27 20Z" fill="#BAB1B1"/>
</svg>
