<svg width="70" height="57" viewBox="0 0 70 57" fill="none" xmlns="http://www.w3.org/2000/svg">
<rect width="70" height="57" rx="8" fill="#E1B5BA"/>
<path d="M60.1632 27.3324C60.1632 26.8413 59.9532 26.3701 59.5797 26.0225C59.2059 25.6749 58.6988 25.4792 58.1699 25.4783C58.6984 25.4783 59.2056 25.2833 59.5794 24.9362C59.9532 24.5891 60.1632 24.1183 60.1632 23.6274C60.1642 24.1186 60.3749 24.5894 60.7491 24.9364C61.1236 25.2834 61.6311 25.4783 62.1599 25.4783C61.6307 25.4792 61.1232 25.6748 60.7491 26.0223C60.3749 26.3699 60.1642 26.841 60.1632 27.3324Z" stroke="black" stroke-width="2" stroke-linejoin="round"/>
<path d="M56.1645 18.5249C56.1645 18.0336 55.9517 17.5624 55.573 17.215C55.1943 16.8676 54.6805 16.6724 54.145 16.6724C54.6805 16.6724 55.1943 16.4773 55.573 16.1299C55.9517 15.7825 56.1645 15.3112 56.1645 14.8199C56.1645 15.309 56.3752 15.7783 56.7511 16.1253C57.1267 16.4724 57.637 16.669 58.17 16.6724C57.6345 16.6724 57.1207 16.8676 56.742 17.215C56.3633 17.5624 56.1505 18.0336 56.1505 18.5249H56.1645Z" stroke="black" stroke-width="2" stroke-linejoin="round"/>
<path d="M11.4507 46.1519C8.62335 44.4762 6.6833 41.5665 6.74406 38.3093" stroke="black" stroke-width="2" stroke-linejoin="round"/>
<path d="M11.4277 46.1663C12.9327 47.1032 17.0977 48.9775 21.7177 48.9775" stroke="black" stroke-width="2"/>
<path d="M6.74365 38.3094C6.74365 33.3512 10.8262 29.2827 16.0457 28.8317C16.0389 28.6907 16.0221 28.5529 16.0221 28.412C16.0221 24.9542 19.0452 22.151 22.77 22.151C24.5785 22.151 26.2182 22.815 27.4261 23.8893C29.5045 18.7621 34.8218 15.1007 41.0738 15.1007C49.1308 15.1007 55.6629 21.1644 55.6629 28.6406V28.6469C60.0522 29.9718 63.2239 33.7961 63.2239 38.3094C63.2239 41.0199 62.0819 43.4827 60.2199 45.305" stroke="black" stroke-width="2" stroke-linejoin="round"/>
<path d="M23.247 31.2845V31.6767C22.7281 31.591 22.2729 31.5461 21.8854 31.5461C20.9445 31.5461 20.1465 31.7768 19.5863 32.3263L19.5863 32.3263L19.5828 32.3297C19.029 32.8836 18.7992 33.6842 18.7992 34.6294V34.8959C18.7992 35.8327 19.0242 36.6273 19.5669 37.1807L19.5669 37.1808L19.5701 37.184C20.1158 37.7303 20.9052 37.9563 21.8354 37.9563C22.2428 37.9563 22.7574 37.9 23.3719 37.7933V38.191C22.8429 38.3395 22.2569 38.4159 21.6105 38.4159C20.2804 38.4159 19.3589 38.088 18.7592 37.5133C18.1619 36.9335 17.8252 36.0549 17.8252 34.7916C17.8252 33.5528 18.1735 32.6622 18.8098 32.0463C19.4489 31.4276 20.3753 31.0864 21.6605 31.0864C22.2156 31.0864 22.7439 31.1529 23.247 31.2845Z" fill="black" stroke="black"/>
<path d="M26.7165 37.7719C26.9265 37.9857 27.2066 38.0449 27.4478 38.0487V38.2788C27.2509 38.3237 27.0431 38.3466 26.8233 38.3466C26.343 38.3466 26.0734 38.223 25.9184 38.0621C25.76 37.8979 25.6367 37.6075 25.6367 37.0971V30.6925H26.4608V36.958C26.4608 37.2065 26.4988 37.5064 26.6845 37.7359L26.6996 37.7547L26.7165 37.7719Z" fill="black" stroke="black"/>
<path d="M29.94 33.8626L29.94 33.8626L29.9425 33.8601C30.3841 33.42 31.0185 33.1716 31.9133 33.1716C32.8081 33.1716 33.4426 33.42 33.8842 33.8601L33.8842 33.8601L33.8867 33.8626C34.3262 34.2943 34.5743 34.917 34.5743 35.7998C34.5743 36.6901 34.326 37.3216 33.8855 37.7613C33.4443 38.1941 32.8092 38.4393 31.9133 38.4393C31.0174 38.4393 30.3824 38.1941 29.9412 37.7613C29.5007 37.3216 29.2524 36.6901 29.2524 35.7998C29.2524 34.917 29.5005 34.2943 29.94 33.8626ZM31.9133 38.1415C32.4826 38.1415 32.976 37.9323 33.3045 37.4712C33.6108 37.0412 33.7252 36.4579 33.7252 35.7998C33.7252 35.1449 33.6106 34.5639 33.3037 34.1357C32.9747 33.6767 32.4813 33.4694 31.9133 33.4694C31.3453 33.4694 30.852 33.6767 30.523 34.1357C30.2161 34.5639 30.1014 35.1449 30.1014 35.7998C30.1014 36.4579 30.2159 37.0412 30.5222 37.4712C30.8507 37.9323 31.3441 38.1415 31.9133 38.1415Z" fill="black" stroke="black"/>
<path d="M38.2451 38.4392C37.7727 38.4392 37.4711 38.313 37.2721 38.1201C37.0709 37.9175 36.9458 37.6239 36.9458 37.1784V33.3455H37.77V36.7032C37.77 37.0847 37.8582 37.4639 38.1229 37.7479C38.3938 38.0385 38.7667 38.1415 39.1446 38.1415C39.3321 38.1415 39.5169 38.1226 39.6989 38.0855C39.22 38.3249 38.7364 38.4392 38.2451 38.4392ZM41.0503 38.005L40.919 37.5356V37.271V33.3455H41.7432V38.2653H41.1231L41.0503 38.005Z" fill="black" stroke="black"/>
<path d="M45.1838 38.1064C44.8749 37.9148 44.6254 37.6365 44.4383 37.2529C44.2598 36.8694 44.1621 36.401 44.1621 35.8345C44.1621 34.963 44.3842 34.3249 44.7783 33.8668L44.7783 33.8668L44.7806 33.8641C45.1703 33.4045 45.6764 33.1716 46.3484 33.1716C46.8878 33.1716 47.3369 33.3061 47.7151 33.5619C47.4334 33.4837 47.1352 33.4459 46.823 33.4459C46.2511 33.4459 45.7552 33.6555 45.4282 34.1201C45.1236 34.5459 45.0112 35.1295 45.0112 35.788C45.0112 36.4501 45.1286 37.0383 45.448 37.466L45.448 37.466L45.4531 37.4727C45.8042 37.9264 46.3236 38.1184 46.9105 38.1184C47.1472 38.1184 47.3783 38.0875 47.603 38.0269C47.2317 38.2699 46.8058 38.3928 46.3109 38.3928C45.8661 38.3928 45.4961 38.2927 45.1838 38.1064ZM48.5599 34.1684V33.937V33.1929V30.6925H49.3841V38.2654H48.6738L48.628 38.106L48.4888 37.6217L48.5599 37.5797V37.2941V34.2355V34.1684Z" fill="black" stroke="black"/>
<path d="M31.0585 42.0262V42.4184C30.5397 42.3328 30.0845 42.2878 29.6969 42.2878C28.7559 42.2878 27.958 42.5188 27.3978 43.0681L27.3978 43.0681L27.3944 43.0715C26.8405 43.6254 26.6107 44.426 26.6107 45.3712V45.6377C26.6107 46.5742 26.8357 47.3691 27.3784 47.9225L27.3784 47.9226L27.3817 47.9258C27.9273 48.4721 28.7168 48.6981 29.6469 48.6981C30.0543 48.6981 30.5691 48.6415 31.1834 48.5349V48.9328C30.6545 49.0813 30.0685 49.1577 29.4221 49.1577C28.0919 49.1577 27.1705 48.8298 26.5708 48.2552C25.9733 47.675 25.6367 46.7966 25.6367 45.5334C25.6367 44.2946 25.9851 43.404 26.6214 42.7879L26.6214 42.7879C27.2604 42.1692 28.1867 41.8282 29.472 41.8282C30.0272 41.8282 30.5556 41.8945 31.0585 42.0262Z" fill="black" stroke="black"/>
<path d="M34.528 48.5138C34.738 48.7275 35.018 48.7868 35.2593 48.7906V49.0204C35.0625 49.0653 34.8547 49.0882 34.6349 49.0882C34.1545 49.0882 33.8849 48.9646 33.7298 48.8039C33.5715 48.6397 33.4482 48.3495 33.4482 47.8391V41.4344H34.2723V47.7C34.2723 47.948 34.3103 48.2483 34.496 48.4778L34.5112 48.4966L34.528 48.5138Z" fill="black" stroke="black"/>
<path d="M38.7599 49.1808C38.2878 49.1808 37.9862 49.0549 37.787 48.862C37.5858 48.6592 37.4609 48.3657 37.4609 47.92V44.0874H38.2851V47.4452C38.2851 47.8267 38.3733 48.2058 38.638 48.4898C38.9088 48.7804 39.2816 48.8834 39.6594 48.8834C39.8469 48.8834 40.0317 48.8645 40.2136 48.8274C39.7348 49.0665 39.2513 49.1808 38.7599 49.1808ZM41.5654 48.747L41.4337 48.2762V48.0126V44.0874H42.2579V49.0073H41.6383L41.5654 48.747Z" fill="black" stroke="black"/>
<path d="M45.635 49.0073H45.0024V41.4344H45.8263V44.0392V44.7032V45.0005V45.0792V48.0474V48.3245L45.6951 48.7929L45.635 49.0073ZM47.5509 44.1879C47.3246 44.1879 47.1036 44.2119 46.8883 44.2597C47.0216 44.1826 47.1697 44.1164 47.3338 44.0619L47.3338 44.062L47.3443 44.0583C47.6199 43.9599 47.8837 43.9135 48.1379 43.9135C48.8194 43.9135 49.3095 44.1378 49.6689 44.5601L49.6688 44.5602L49.6716 44.5633C50.0471 44.9972 50.2618 45.6105 50.2618 46.4604C50.2618 47.0105 50.1642 47.483 49.9811 47.8879L49.9811 47.888C49.8007 48.2873 49.5469 48.5914 49.2209 48.814C48.9026 49.0242 48.5309 49.1347 48.0882 49.1347C47.7597 49.1347 47.4611 49.0819 47.1879 48.9804L47.1875 48.9803C47.022 48.9189 46.8779 48.8446 46.7526 48.7585C47.0079 48.8267 47.2746 48.8604 47.5509 48.8604C48.1258 48.8604 48.6385 48.6737 48.9751 48.2205C49.2974 47.797 49.4128 47.2008 49.4128 46.53C49.4128 45.8535 49.3024 45.2547 48.9901 44.8313C48.652 44.3725 48.1314 44.1879 47.5509 44.1879Z" fill="black" stroke="black"/>
<path d="M55.6997 44.2853C55.2598 44.1978 54.8349 44.153 54.4256 44.153C54.0662 44.153 53.7213 44.1905 53.457 44.3191L53.457 44.3191L53.4561 44.3196C53.3114 44.3904 53.1748 44.4966 53.0768 44.6499C52.978 44.8042 52.9386 44.9744 52.9386 45.1395C52.9386 45.4017 53.0365 45.6459 53.2366 45.831L53.2526 45.8458L53.2699 45.8592C53.437 45.9886 53.7086 46.1076 54.012 46.2214C54.0122 46.2215 54.0124 46.2216 54.0126 46.2216L54.9609 46.5803L54.9609 46.5803L54.9627 46.5809C55.4448 46.7611 55.7194 46.9477 55.8563 47.1086L55.8562 47.1087L55.8624 47.1157C55.9909 47.2612 56.0746 47.4673 56.0746 47.7808C56.0746 48.188 55.9172 48.5055 55.5633 48.7704C55.2068 49.0358 54.7054 49.1925 54.0133 49.1925C53.3435 49.1925 52.7545 49.0887 52.2393 48.8896V48.7398C52.8595 48.8805 53.4472 48.9529 54.0007 48.9529C54.3382 48.9529 54.6774 48.9015 54.9461 48.7286C55.2526 48.5313 55.4005 48.2201 55.4005 47.8738C55.4005 47.6043 55.3084 47.3368 55.0819 47.1402C54.9046 46.9802 54.6251 46.8627 54.3437 46.7655L53.3742 46.4081L53.3742 46.4081L53.3725 46.4075C52.9065 46.2377 52.6319 46.0494 52.4859 45.874C52.3492 45.7094 52.2645 45.4857 52.2645 45.1626C52.2645 44.8089 52.4027 44.5369 52.7267 44.3089L52.7267 44.3089L52.7279 44.308C53.0765 44.0612 53.5729 43.9135 54.2632 43.9135C54.7804 43.9135 55.2581 43.9897 55.6997 44.139V44.2853Z" fill="black" stroke="black"/>
<path d="M27.7549 12.805C27.7549 12.3137 27.5484 11.8425 27.1809 11.4951C26.8133 11.1476 26.3148 10.9525 25.7949 10.9525C26.0523 10.9525 26.3072 10.9046 26.545 10.8115C26.7828 10.7184 26.9989 10.5819 27.1809 10.4099C27.3629 10.2379 27.5072 10.0337 27.6057 9.8089C27.7043 9.58413 27.7549 9.34324 27.7549 9.09998C27.7549 9.34324 27.8057 9.58413 27.9041 9.8089C28.0026 10.0337 28.147 10.2379 28.329 10.4099C28.511 10.5819 28.7271 10.7184 28.9649 10.8115C29.2027 10.9046 29.4576 10.9525 29.7149 10.9525C29.1951 10.9525 28.6966 11.1476 28.329 11.4951C27.9614 11.8425 27.7549 12.3137 27.7549 12.805Z" stroke="black" stroke-width="2" stroke-linejoin="round"/>
<path d="M11.0793 27.3292C11.0775 26.8386 10.8681 26.3687 10.4972 26.0223C10.1262 25.676 9.62384 25.4816 9.1001 25.4816C9.62503 25.4816 10.1284 25.2862 10.4996 24.9385C10.8708 24.5908 11.0793 24.1192 11.0793 23.6274C11.0788 23.8708 11.1296 24.1118 11.2287 24.3367C11.3278 24.5617 11.4733 24.7661 11.6568 24.9383C11.8403 25.1105 12.0582 25.2471 12.2982 25.3404C12.5381 25.4336 12.7953 25.4816 13.0551 25.4816C12.5311 25.4816 12.0285 25.6766 11.658 26.0237C11.2875 26.3708 11.0793 26.8416 11.0793 27.3324V27.3292Z" stroke="black" stroke-width="2" stroke-linejoin="round"/>
<mask id="path-19-inside-1_83_7" fill="white">
<path d="M20.1389 16.978C20.1389 17.0982 20.1529 17.1957 20.1774 17.2672C20.2054 17.3387 20.2404 17.4167 20.2894 17.5012C20.3069 17.5272 20.3139 17.5532 20.3139 17.576C20.3139 17.6085 20.2929 17.641 20.2474 17.6735L20.0269 17.81C19.9954 17.8295 19.9639 17.8392 19.9359 17.8392C19.9009 17.8392 19.8659 17.823 19.8309 17.7937C19.7819 17.745 19.7399 17.693 19.7049 17.641C19.6699 17.5857 19.6349 17.524 19.5964 17.4492C19.3234 17.7482 18.9804 17.8977 18.5674 17.8977C18.2734 17.8977 18.0389 17.8197 17.8674 17.6637C17.6959 17.5077 17.6084 17.2997 17.6084 17.0397C17.6084 16.7635 17.7134 16.5392 17.9269 16.3702C18.1404 16.2012 18.4239 16.1167 18.7844 16.1167C18.9034 16.1167 19.0259 16.1265 19.1554 16.1427C19.2849 16.159 19.4179 16.185 19.5579 16.2142V15.977C19.5579 15.73 19.5019 15.5577 19.3934 15.457C19.2814 15.3562 19.0924 15.3075 18.8229 15.3075C18.7004 15.3075 18.5744 15.3205 18.4449 15.3497C18.3154 15.379 18.1894 15.4147 18.0669 15.4602C18.0109 15.483 17.9689 15.496 17.9444 15.5025C17.9199 15.509 17.9024 15.5122 17.8884 15.5122C17.8394 15.5122 17.8149 15.4797 17.8149 15.4115V15.2522C17.8149 15.2002 17.8219 15.1612 17.8394 15.1385C17.8569 15.1157 17.8884 15.093 17.9374 15.0702C18.0599 15.0117 18.2069 14.963 18.3784 14.924C18.5499 14.8817 18.7319 14.8622 18.9244 14.8622C19.3409 14.8622 19.6454 14.95 19.8414 15.1255C20.0339 15.301 20.1319 15.5675 20.1319 15.925V16.978H20.1389ZM18.7179 17.472C18.8334 17.472 18.9524 17.4525 19.0784 17.4135C19.2044 17.3745 19.3164 17.303 19.4109 17.2055C19.4669 17.1437 19.5089 17.0755 19.5299 16.9975C19.5509 16.9195 19.5649 16.8252 19.5649 16.7147V16.5782C19.4634 16.5555 19.3549 16.536 19.2429 16.523C19.1309 16.51 19.0224 16.5035 18.9139 16.5035C18.6794 16.5035 18.5079 16.5457 18.3924 16.6335C18.2769 16.7212 18.2209 16.8447 18.2209 17.0072C18.2209 17.16 18.2629 17.2737 18.3504 17.3517C18.4344 17.433 18.5569 17.472 18.7179 17.472ZM21.5284 17.823C21.4654 17.823 21.4234 17.8132 21.3954 17.7905C21.3674 17.771 21.3429 17.7255 21.3219 17.6637L20.4994 15.1515C20.4784 15.0865 20.4679 15.0442 20.4679 15.0215C20.4679 14.9695 20.4959 14.9402 20.5519 14.9402H20.8949C20.9614 14.9402 21.0069 14.95 21.0314 14.9727C21.0594 14.9922 21.0804 15.0377 21.1014 15.0995L21.6894 17.251L22.2354 15.0995C22.2529 15.0345 22.2739 14.9922 22.3019 14.9727C22.3299 14.9532 22.3789 14.9402 22.4419 14.9402H22.7219C22.7884 14.9402 22.8339 14.95 22.8619 14.9727C22.8899 14.9922 22.9144 15.0377 22.9284 15.0995L23.4814 17.277L24.0869 15.0995C24.1079 15.0345 24.1324 14.9922 24.1569 14.9727C24.1849 14.9532 24.2304 14.9402 24.2934 14.9402H24.6189C24.6749 14.9402 24.7064 14.9662 24.7064 15.0215C24.7064 15.0377 24.7029 15.054 24.6994 15.0735C24.6959 15.093 24.6889 15.119 24.6749 15.1547L23.8314 17.667C23.8104 17.732 23.7859 17.7742 23.7579 17.7937C23.7299 17.8132 23.6844 17.8262 23.6249 17.8262H23.3239C23.2574 17.8262 23.2119 17.8165 23.1839 17.7937C23.1559 17.771 23.1314 17.7287 23.1174 17.6637L22.5749 15.5675L22.0359 17.6605C22.0184 17.7255 21.9974 17.7677 21.9694 17.7905C21.9414 17.8132 21.8924 17.823 21.8294 17.823H21.5284ZM26.0259 17.9107C25.8439 17.9107 25.6619 17.8912 25.4869 17.8522C25.3119 17.8132 25.1754 17.771 25.0844 17.7222C25.0284 17.693 24.9899 17.6605 24.9759 17.6312C24.9619 17.602 24.9549 17.5695 24.9549 17.5402V17.3745C24.9549 17.3062 24.9829 17.2737 25.0354 17.2737C25.0564 17.2737 25.0774 17.277 25.0984 17.2835C25.1194 17.29 25.1509 17.303 25.1859 17.316C25.3049 17.3647 25.4344 17.4037 25.5709 17.4297C25.7109 17.4557 25.8474 17.4687 25.9874 17.4687C26.2079 17.4687 26.3794 17.433 26.4984 17.3615C26.6174 17.29 26.6804 17.186 26.6804 17.0527C26.6804 16.9617 26.6489 16.887 26.5859 16.8252C26.5229 16.7635 26.4039 16.7082 26.2324 16.6562L25.7249 16.51C25.4694 16.4352 25.2804 16.3247 25.1649 16.1785C25.0494 16.0355 24.9899 15.8762 24.9899 15.7072C24.9899 15.5707 25.0214 15.4505 25.0844 15.3465C25.1474 15.2425 25.2314 15.1515 25.3364 15.08C25.4414 15.0052 25.5604 14.95 25.7004 14.911C25.8404 14.872 25.9874 14.8557 26.1414 14.8557C26.2184 14.8557 26.2989 14.859 26.3759 14.8687C26.4564 14.8785 26.5299 14.8915 26.6034 14.9045C26.6734 14.9207 26.7399 14.937 26.8029 14.9565C26.8659 14.976 26.9149 14.9955 26.9499 15.015C26.9989 15.041 27.0339 15.067 27.0549 15.0962C27.0759 15.1222 27.0864 15.158 27.0864 15.2035V15.3562C27.0864 15.4245 27.0584 15.4602 27.0059 15.4602C26.9779 15.4602 26.9324 15.4472 26.8729 15.4212C26.6734 15.3367 26.4494 15.2945 26.2009 15.2945C26.0014 15.2945 25.8439 15.3237 25.7354 15.3855C25.6269 15.4472 25.5709 15.5415 25.5709 15.6747C25.5709 15.7657 25.6059 15.8437 25.6759 15.9055C25.7459 15.9672 25.8754 16.029 26.0609 16.0842L26.5579 16.2305C26.8099 16.3052 26.9919 16.4092 27.1004 16.5425C27.2089 16.6757 27.2614 16.8285 27.2614 16.9975C27.2614 17.1372 27.2299 17.264 27.1704 17.3745C27.1074 17.485 27.0234 17.5825 26.9149 17.6605C26.8064 17.7417 26.6769 17.8002 26.5264 17.8425C26.3689 17.888 26.2044 17.9107 26.0259 17.9107Z"/>
</mask>
<path d="M20.1389 16.978C20.1389 17.0982 20.1529 17.1957 20.1774 17.2672C20.2054 17.3387 20.2404 17.4167 20.2894 17.5012C20.3069 17.5272 20.3139 17.5532 20.3139 17.576C20.3139 17.6085 20.2929 17.641 20.2474 17.6735L20.0269 17.81C19.9954 17.8295 19.9639 17.8392 19.9359 17.8392C19.9009 17.8392 19.8659 17.823 19.8309 17.7937C19.7819 17.745 19.7399 17.693 19.7049 17.641C19.6699 17.5857 19.6349 17.524 19.5964 17.4492C19.3234 17.7482 18.9804 17.8977 18.5674 17.8977C18.2734 17.8977 18.0389 17.8197 17.8674 17.6637C17.6959 17.5077 17.6084 17.2997 17.6084 17.0397C17.6084 16.7635 17.7134 16.5392 17.9269 16.3702C18.1404 16.2012 18.4239 16.1167 18.7844 16.1167C18.9034 16.1167 19.0259 16.1265 19.1554 16.1427C19.2849 16.159 19.4179 16.185 19.5579 16.2142V15.977C19.5579 15.73 19.5019 15.5577 19.3934 15.457C19.2814 15.3562 19.0924 15.3075 18.8229 15.3075C18.7004 15.3075 18.5744 15.3205 18.4449 15.3497C18.3154 15.379 18.1894 15.4147 18.0669 15.4602C18.0109 15.483 17.9689 15.496 17.9444 15.5025C17.9199 15.509 17.9024 15.5122 17.8884 15.5122C17.8394 15.5122 17.8149 15.4797 17.8149 15.4115V15.2522C17.8149 15.2002 17.8219 15.1612 17.8394 15.1385C17.8569 15.1157 17.8884 15.093 17.9374 15.0702C18.0599 15.0117 18.2069 14.963 18.3784 14.924C18.5499 14.8817 18.7319 14.8622 18.9244 14.8622C19.3409 14.8622 19.6454 14.95 19.8414 15.1255C20.0339 15.301 20.1319 15.5675 20.1319 15.925V16.978H20.1389ZM18.7179 17.472C18.8334 17.472 18.9524 17.4525 19.0784 17.4135C19.2044 17.3745 19.3164 17.303 19.4109 17.2055C19.4669 17.1437 19.5089 17.0755 19.5299 16.9975C19.5509 16.9195 19.5649 16.8252 19.5649 16.7147V16.5782C19.4634 16.5555 19.3549 16.536 19.2429 16.523C19.1309 16.51 19.0224 16.5035 18.9139 16.5035C18.6794 16.5035 18.5079 16.5457 18.3924 16.6335C18.2769 16.7212 18.2209 16.8447 18.2209 17.0072C18.2209 17.16 18.2629 17.2737 18.3504 17.3517C18.4344 17.433 18.5569 17.472 18.7179 17.472ZM21.5284 17.823C21.4654 17.823 21.4234 17.8132 21.3954 17.7905C21.3674 17.771 21.3429 17.7255 21.3219 17.6637L20.4994 15.1515C20.4784 15.0865 20.4679 15.0442 20.4679 15.0215C20.4679 14.9695 20.4959 14.9402 20.5519 14.9402H20.8949C20.9614 14.9402 21.0069 14.95 21.0314 14.9727C21.0594 14.9922 21.0804 15.0377 21.1014 15.0995L21.6894 17.251L22.2354 15.0995C22.2529 15.0345 22.2739 14.9922 22.3019 14.9727C22.3299 14.9532 22.3789 14.9402 22.4419 14.9402H22.7219C22.7884 14.9402 22.8339 14.95 22.8619 14.9727C22.8899 14.9922 22.9144 15.0377 22.9284 15.0995L23.4814 17.277L24.0869 15.0995C24.1079 15.0345 24.1324 14.9922 24.1569 14.9727C24.1849 14.9532 24.2304 14.9402 24.2934 14.9402H24.6189C24.6749 14.9402 24.7064 14.9662 24.7064 15.0215C24.7064 15.0377 24.7029 15.054 24.6994 15.0735C24.6959 15.093 24.6889 15.119 24.6749 15.1547L23.8314 17.667C23.8104 17.732 23.7859 17.7742 23.7579 17.7937C23.7299 17.8132 23.6844 17.8262 23.6249 17.8262H23.3239C23.2574 17.8262 23.2119 17.8165 23.1839 17.7937C23.1559 17.771 23.1314 17.7287 23.1174 17.6637L22.5749 15.5675L22.0359 17.6605C22.0184 17.7255 21.9974 17.7677 21.9694 17.7905C21.9414 17.8132 21.8924 17.823 21.8294 17.823H21.5284ZM26.0259 17.9107C25.8439 17.9107 25.6619 17.8912 25.4869 17.8522C25.3119 17.8132 25.1754 17.771 25.0844 17.7222C25.0284 17.693 24.9899 17.6605 24.9759 17.6312C24.9619 17.602 24.9549 17.5695 24.9549 17.5402V17.3745C24.9549 17.3062 24.9829 17.2737 25.0354 17.2737C25.0564 17.2737 25.0774 17.277 25.0984 17.2835C25.1194 17.29 25.1509 17.303 25.1859 17.316C25.3049 17.3647 25.4344 17.4037 25.5709 17.4297C25.7109 17.4557 25.8474 17.4687 25.9874 17.4687C26.2079 17.4687 26.3794 17.433 26.4984 17.3615C26.6174 17.29 26.6804 17.186 26.6804 17.0527C26.6804 16.9617 26.6489 16.887 26.5859 16.8252C26.5229 16.7635 26.4039 16.7082 26.2324 16.6562L25.7249 16.51C25.4694 16.4352 25.2804 16.3247 25.1649 16.1785C25.0494 16.0355 24.9899 15.8762 24.9899 15.7072C24.9899 15.5707 25.0214 15.4505 25.0844 15.3465C25.1474 15.2425 25.2314 15.1515 25.3364 15.08C25.4414 15.0052 25.5604 14.95 25.7004 14.911C25.8404 14.872 25.9874 14.8557 26.1414 14.8557C26.2184 14.8557 26.2989 14.859 26.3759 14.8687C26.4564 14.8785 26.5299 14.8915 26.6034 14.9045C26.6734 14.9207 26.7399 14.937 26.8029 14.9565C26.8659 14.976 26.9149 14.9955 26.9499 15.015C26.9989 15.041 27.0339 15.067 27.0549 15.0962C27.0759 15.1222 27.0864 15.158 27.0864 15.2035V15.3562C27.0864 15.4245 27.0584 15.4602 27.0059 15.4602C26.9779 15.4602 26.9324 15.4472 26.8729 15.4212C26.6734 15.3367 26.4494 15.2945 26.2009 15.2945C26.0014 15.2945 25.8439 15.3237 25.7354 15.3855C25.6269 15.4472 25.5709 15.5415 25.5709 15.6747C25.5709 15.7657 25.6059 15.8437 25.6759 15.9055C25.7459 15.9672 25.8754 16.029 26.0609 16.0842L26.5579 16.2305C26.8099 16.3052 26.9919 16.4092 27.1004 16.5425C27.2089 16.6757 27.2614 16.8285 27.2614 16.9975C27.2614 17.1372 27.2299 17.264 27.1704 17.3745C27.1074 17.485 27.0234 17.5825 26.9149 17.6605C26.8064 17.7417 26.6769 17.8002 26.5264 17.8425C26.3689 17.888 26.2044 17.9107 26.0259 17.9107Z" fill="black" stroke="black" stroke-width="2" mask="url(#path-19-inside-1_83_7)"/>
<path d="M26.1577 18.4352C26.1357 18.4376 26.1147 18.44 26.095 18.4422L26.0804 18.3166L26.0809 18.3174L26.1577 18.4352Z" fill="black" stroke="black"/>
<mask id="path-21-inside-2_83_7" fill="white">
<path d="M26.6875 19.4902C25.536 20.28 23.863 20.6992 22.4245 20.6992C20.4085 20.6992 18.592 20.007 17.22 18.8565C17.1115 18.7655 17.2095 18.642 17.339 18.7135C18.823 19.513 20.6535 19.9972 22.547 19.9972C23.8245 19.9972 25.228 19.7502 26.5195 19.2432C26.712 19.162 26.8765 19.3602 26.6875 19.4902Z"/>
</mask>
<path d="M26.6875 19.4902C25.536 20.28 23.863 20.6992 22.4245 20.6992C20.4085 20.6992 18.592 20.007 17.22 18.8565C17.1115 18.7655 17.2095 18.642 17.339 18.7135C18.823 19.513 20.6535 19.9972 22.547 19.9972C23.8245 19.9972 25.228 19.7502 26.5195 19.2432C26.712 19.162 26.8765 19.3602 26.6875 19.4902Z" fill="black"/>
<path d="M26.6875 19.4902L27.2531 20.3149L27.2542 20.3141L26.6875 19.4902ZM17.22 18.8565L16.5773 19.6227L16.5774 19.6227L17.22 18.8565ZM17.339 18.7135L16.8556 19.589L16.8647 19.5939L17.339 18.7135ZM26.5195 19.2432L26.8849 20.174L26.8966 20.1695L26.9081 20.1646L26.5195 19.2432ZM26.1218 18.6655C25.1727 19.3165 23.7094 19.6992 22.4245 19.6992V21.6992C24.0165 21.6992 25.8992 21.2435 27.2531 20.3149L26.1218 18.6655ZM22.4245 19.6992C20.64 19.6992 19.0518 19.0875 17.8625 18.0902L16.5774 19.6227C18.1321 20.9264 20.1769 21.6992 22.4245 21.6992V19.6992ZM17.8626 18.0903C17.9762 18.1856 18.1152 18.3584 18.1598 18.6143C18.2053 18.8761 18.1352 19.1473 17.9657 19.3555C17.6065 19.7965 17.0912 19.719 16.8556 19.5889L17.8223 17.8381C17.4572 17.6365 16.8281 17.585 16.4148 18.0926C16.2181 18.3341 16.1357 18.6488 16.1894 18.9571C16.242 19.2596 16.4094 19.4819 16.5773 19.6227L17.8626 18.0903ZM16.8647 19.5939C18.4956 20.4725 20.4893 20.9972 22.547 20.9972V18.9972C20.8177 18.9972 19.1503 18.5535 17.8133 17.8331L16.8647 19.5939ZM22.547 20.9972C23.9455 20.9972 25.4733 20.7282 26.8849 20.174L26.154 18.3124C24.9827 18.7722 23.7034 18.9972 22.547 18.9972V20.9972ZM26.9081 20.1646C26.6391 20.2781 26.2151 20.2472 25.9453 19.8859C25.806 19.6994 25.7303 19.437 25.7932 19.1622C25.8544 18.8949 26.017 18.7376 26.1207 18.6663L27.2542 20.3141C27.4524 20.1778 27.6653 19.947 27.7428 19.6085C27.822 19.2625 27.7286 18.9312 27.5477 18.6891C27.1948 18.2165 26.5923 18.1271 26.1308 18.3218L26.9081 20.1646Z" fill="black" mask="url(#path-21-inside-2_83_7)"/>
</svg>
