<svg width="36" height="36" viewBox="0 0 36 36" fill="none" xmlns="http://www.w3.org/2000/svg">
<path d="M22.5 31.5C22.5 31.5 22.5 28.095 22.5 27C22.5 26.055 22.725 24.06 21.75 23.25C23.835 23.055 25.47 22.38 27 21C28.53 19.62 29.25 17.535 29.25 14.25C29.25 12 28.875 10.5 27.75 9C28.185 7.83 28.26 6 27.75 4.5C25.41 4.5 23.295 6.105 22.5 6.75C21.915 6.6 20.505 6 18 6C15.495 6 14.085 6.6 13.5 6.75C12.705 6.105 10.59 4.5 8.25 4.5C7.74 6 7.815 7.83 8.25 9C7.125 10.5 6.75 12 6.75 14.25C6.75 17.535 7.47 19.62 9 21C10.53 22.38 12.165 23.055 14.25 23.25C13.275 24.06 13.5 26.055 13.5 27C13.5 28.095 13.5 31.5 13.5 31.5" stroke="#E9939A" stroke-width="2" stroke-linecap="round" stroke-linejoin="round"/>
<path d="M13.5 28.5C11.385 28.5 9.24 27.66 7.965 26.715C6.705 25.77 6.33 24.225 4.5 23.25" stroke="#E9939A" stroke-width="2" stroke-linecap="round" stroke-linejoin="round"/>
</svg>
