<svg width="36" height="36" viewBox="0 0 36 36" fill="none" xmlns="http://www.w3.org/2000/svg">
<path d="M27.66 4.59H8.33997C7.34626 4.59277 6.39404 4.98875 5.69138 5.69141C4.98871 6.39407 4.59274 7.34629 4.58997 8.34V27.66C4.59274 28.6537 4.98871 29.6059 5.69138 30.3086C6.39404 31.0112 7.34626 31.4072 8.33997 31.41H27.66C28.6545 31.41 29.6084 31.0149 30.3116 30.3116C31.0149 29.6084 31.41 28.6546 31.41 27.66V8.34C31.41 7.34543 31.0149 6.39161 30.3116 5.68835C29.6084 4.98508 28.6545 4.59 27.66 4.59ZM29.91 27.66C29.906 28.2555 29.6677 28.8255 29.2466 29.2466C28.8255 29.6678 28.2555 29.9061 27.66 29.91H8.33997C7.74444 29.9061 7.17443 29.6678 6.75332 29.2466C6.33221 28.8255 6.0939 28.2555 6.08997 27.66V8.34C6.0939 7.74447 6.33221 7.17446 6.75332 6.75335C7.17443 6.33224 7.74444 6.09393 8.33997 6.09H27.66C28.2555 6.09393 28.8255 6.33224 29.2466 6.75335C29.6677 7.17446 29.906 7.74447 29.91 8.34V27.66Z" fill="#E9939A"/>
<path d="M9.56396 16.122C9.56396 15.7242 9.722 15.3426 10.0033 15.0613C10.2846 14.78 10.6661 14.622 11.064 14.622C11.4618 14.622 11.8433 14.78 12.1246 15.0613C12.4059 15.3426 12.564 15.7242 12.564 16.122V25.872C12.564 26.2698 12.4059 26.6513 12.1246 26.9327C11.8433 27.214 11.4618 27.372 11.064 27.372C10.6661 27.372 10.2846 27.214 10.0033 26.9327C9.722 26.6513 9.56396 26.2698 9.56396 25.872V16.122Z" fill="#E9939A"/>
<path d="M11.064 11.616C11.8924 11.616 12.564 10.9444 12.564 10.116C12.564 9.28757 11.8924 8.616 11.064 8.616C10.2355 8.616 9.56396 9.28757 9.56396 10.116C9.56396 10.9444 10.2355 11.616 11.064 11.616Z" fill="#E9939A"/>
<path d="M26.43 20.055V25.875C26.43 26.2728 26.2719 26.6544 25.9906 26.9357C25.7093 27.217 25.3278 27.375 24.93 27.375C24.5321 27.375 24.1506 27.217 23.8693 26.9357C23.588 26.6544 23.43 26.2728 23.43 25.875V20.055C23.43 19.4125 23.1747 18.7963 22.7204 18.342C22.2661 17.8877 21.6499 17.6325 21.0075 17.6325C20.365 17.6325 19.7488 17.8877 19.2945 18.342C18.8402 18.7963 18.585 19.4125 18.585 20.055V25.875C18.585 26.2728 18.4269 26.6544 18.1456 26.9357C17.8643 27.217 17.4828 27.375 17.085 27.375C16.6871 27.375 16.3056 27.217 16.0243 26.9357C15.743 26.6544 15.585 26.2728 15.585 25.875V16.125C15.5911 15.7291 15.7512 15.3512 16.0311 15.0712C16.3111 14.7912 16.6891 14.6312 17.085 14.625C17.339 14.618 17.5902 14.6799 17.812 14.804C18.0338 14.9281 18.218 15.1098 18.345 15.33C19.1698 14.8625 20.1028 14.6198 21.0509 14.6261C21.9989 14.6324 22.9287 14.8874 23.7472 15.3658C24.5657 15.8442 25.2443 16.529 25.7151 17.3519C26.1859 18.1749 26.4324 19.1069 26.43 20.055Z" fill="#E9939A"/>
</svg>
