<svg width="82" height="99" viewBox="0 0 82 99" fill="none" xmlns="http://www.w3.org/2000/svg">
<path d="M58.0833 71.75H41H23.9167" stroke="#580109" stroke-width="3" stroke-linecap="round" stroke-linejoin="round"/>
<path d="M41 71.75V58.0833" stroke="#580109" stroke-width="3" stroke-linecap="round" stroke-linejoin="round"/>
<path d="M41 58.0833H10.25V17.0833H71.75V58.0833H41Z" stroke="#580109" stroke-width="3" stroke-linecap="round" stroke-linejoin="round"/>
<path d="M34.265 28.7246C34.3969 28.0621 34.7171 27.4517 35.187 26.9665C35.657 26.4812 36.2569 26.1418 36.9149 25.9888C37.5728 25.8358 38.2609 25.8757 38.8968 26.1037C39.5326 26.3318 40.0893 26.7383 40.5 27.2746C40.9107 26.7383 41.4674 26.3318 42.1032 26.1037C42.7391 25.8757 43.4272 25.8358 44.0851 25.9888C44.7431 26.1418 45.343 26.4812 45.813 26.9665C46.2829 27.4517 46.6031 28.0621 46.735 28.7246L46.9162 29.6337L47.5049 29.7512C48.3916 29.9291 49.1894 30.4084 49.7627 31.1078C50.3361 31.8072 50.6496 32.6835 50.65 33.5879V33.875C50.65 34.9277 50.2005 35.876 49.4827 36.5387C50.3594 36.9731 51.0791 37.6697 51.5417 38.5319C52.0042 39.394 52.1868 40.3789 52.0641 41.3495C51.9413 42.3202 51.5193 43.2286 50.8566 43.9484C50.1939 44.6682 49.3235 45.1638 48.3662 45.3663L48.3126 45.6345C48.1455 46.4704 47.7344 47.238 47.1312 47.8403C46.5279 48.4426 45.7597 48.8525 44.9235 49.0182C44.0874 49.184 43.2208 49.0981 42.4335 48.7714C41.6461 48.4448 40.9733 47.8921 40.5 47.1831C40.0267 47.8921 39.3539 48.4448 38.5665 48.7714C37.7791 49.0981 36.9126 49.184 36.0765 49.0182C35.2403 48.8525 34.4721 48.4426 33.8688 47.8403C33.2656 47.238 32.8545 46.4704 32.6874 45.6345L32.6337 45.3663C31.6765 45.1638 30.8061 44.6682 30.1434 43.9484C29.4807 43.2286 29.0587 42.3202 28.9359 41.3495C28.8132 40.3789 28.9957 39.394 29.4583 38.5319C29.9209 37.6697 30.6406 36.9731 31.5172 36.5387C31.1493 36.1993 30.8557 35.7874 30.6548 35.329C30.4539 34.8706 30.3501 34.3755 30.35 33.875V33.5879C30.3504 32.6835 30.6639 31.8072 31.2373 31.1078C31.8106 30.4084 32.6084 29.9291 33.495 29.7512L34.0837 29.6352L34.265 28.7246ZM46.3 38.8268V39.675C46.3 40.2518 46.0708 40.8051 45.663 41.213C45.2551 41.6209 44.7018 41.85 44.125 41.85H41.225V44.7892C41.2262 45.4982 41.4907 46.1816 41.9672 46.7067C42.4437 47.2319 43.0982 47.5613 43.8038 47.6312C44.5095 47.7011 45.2159 47.5065 45.7862 47.085C46.3564 46.6636 46.7499 46.0454 46.8901 45.3503L47.0395 44.6079C47.0676 44.4677 47.1366 44.3389 47.2377 44.2377C47.3388 44.1366 47.4676 44.0676 47.6079 44.0395L48.0298 43.954C48.8015 43.7975 49.4904 43.3671 49.9693 42.7422C50.4483 42.1173 50.6849 41.3402 50.6354 40.5544C50.5859 39.7686 50.2536 39.0273 49.7001 38.4675C49.1465 37.9076 48.409 37.5671 47.6238 37.5087C47.515 37.8129 47.3396 38.0891 47.1106 38.3171C46.8816 38.5451 46.6047 38.7192 46.3 38.8268ZM44.85 38.8268C44.5071 38.7052 44.2002 38.4996 43.9573 38.2288C43.7145 37.9579 43.5434 37.6305 43.4598 37.2764C43.3762 36.9224 43.3828 36.553 43.4789 36.2022C43.575 35.8513 43.7576 35.5301 44.0099 35.2681C44.2622 35.006 44.5762 34.8115 44.9232 34.7022C45.2702 34.5929 45.6391 34.5724 45.996 34.6425C46.353 34.7127 46.6866 34.8712 46.9665 35.1037C47.2463 35.3362 47.4633 35.6351 47.5977 35.9732C48.0579 35.8475 48.4641 35.5741 48.7536 35.195C49.0431 34.8158 49.2 34.352 49.2 33.875V33.5879C49.2 32.4134 48.372 31.4042 47.2207 31.1736L46.1579 30.9605C46.0176 30.9324 45.8888 30.8634 45.7877 30.7623C45.6866 30.6611 45.6176 30.5323 45.5895 30.3921L45.3125 29.0088C45.2131 28.5056 44.9298 28.0574 44.5178 27.7518C44.1059 27.4461 43.5948 27.3048 43.0844 27.3555C42.5739 27.4062 42.1007 27.6453 41.7569 28.026C41.4131 28.4067 41.2235 28.9018 41.225 29.4148V40.4H44.125C44.3173 40.4 44.5017 40.3236 44.6376 40.1877C44.7736 40.0517 44.85 39.8673 44.85 39.675V38.8268ZM39.775 31.7V29.4133C39.7761 28.9005 39.5862 28.4056 39.2423 28.0252C38.8985 27.6447 38.4252 27.406 37.9149 27.3555C37.4045 27.305 36.8937 27.4463 36.4819 27.752C36.0701 28.0576 35.7869 28.5057 35.6874 29.0088L35.4119 30.3921C35.3837 30.5325 35.3146 30.6615 35.2131 30.7626C35.1117 30.8638 34.9826 30.9326 34.8421 30.9605L33.7792 31.1736C33.2214 31.2858 32.7195 31.5875 32.3587 32.0275C31.998 32.4676 31.8006 33.0189 31.8 33.5879V33.875C31.8 34.4518 32.0291 35.0051 32.437 35.413C32.8449 35.8209 33.3982 36.05 33.975 36.05H35.425C36.0018 36.05 36.5551 36.2792 36.963 36.687C37.3708 37.0949 37.6 37.6482 37.6 38.225V39.0733C38.0837 39.2443 38.4914 39.5808 38.751 40.0233C39.0106 40.4659 39.1054 40.986 39.0187 41.4917C38.9319 41.9973 38.6692 42.4561 38.2769 42.7868C37.8846 43.1175 37.3881 43.2989 36.875 43.2989C36.3619 43.2989 35.8654 43.1175 35.4731 42.7868C35.0808 42.4561 34.8181 41.9973 34.7313 41.4917C34.6446 40.986 34.7394 40.4659 34.999 40.0233C35.2586 39.5808 35.6663 39.2443 36.15 39.0733V38.225C36.15 38.0327 36.0736 37.8483 35.9376 37.7123C35.8017 37.5764 35.6173 37.5 35.425 37.5H33.6096C32.8024 37.5023 32.0247 37.8041 31.4272 38.3469C30.8297 38.8897 30.4549 39.6349 30.3753 40.4382C30.2957 41.2415 30.517 42.0458 30.9964 42.6953C31.4758 43.3447 32.1791 43.7933 32.9701 43.954L33.3921 44.0395C33.5323 44.0676 33.6611 44.1366 33.7623 44.2377C33.8634 44.3389 33.9324 44.4677 33.9605 44.6079L34.1098 45.3503C34.2501 46.0454 34.6436 46.6636 35.2138 47.085C35.7841 47.5065 36.4905 47.7011 37.1961 47.6312C37.9018 47.5613 38.5563 47.2319 39.0328 46.7067C39.5093 46.1816 39.7738 45.4982 39.775 44.7892V33.15H38.9267C38.7557 33.6337 38.4192 34.0414 37.9766 34.301C37.5341 34.5606 37.014 34.6554 36.5083 34.5687C36.0027 34.4819 35.5439 34.2192 35.2132 33.8269C34.8825 33.4346 34.7011 32.9381 34.7011 32.425C34.7011 31.9119 34.8825 31.4154 35.2132 31.0231C35.5439 30.6308 36.0027 30.3681 36.5083 30.2813C37.014 30.1946 37.5341 30.2894 37.9766 30.549C38.4192 30.8086 38.7557 31.2163 38.9267 31.7H39.775ZM37.6 32.425C37.6 32.2327 37.5236 32.0483 37.3876 31.9123C37.2517 31.7764 37.0673 31.7 36.875 31.7C36.6827 31.7 36.4983 31.7764 36.3623 31.9123C36.2264 32.0483 36.15 32.2327 36.15 32.425C36.15 32.6173 36.2264 32.8017 36.3623 32.9377C36.4983 33.0736 36.6827 33.15 36.875 33.15C37.0673 33.15 37.2517 33.0736 37.3876 32.9377C37.5236 32.8017 37.6 32.6173 37.6 32.425ZM36.875 41.85C37.0673 41.85 37.2517 41.7736 37.3876 41.6377C37.5236 41.5017 37.6 41.3173 37.6 41.125C37.6 40.9327 37.5236 40.7483 37.3876 40.6123C37.2517 40.4764 37.0673 40.4 36.875 40.4C36.6827 40.4 36.4983 40.4764 36.3623 40.6123C36.2264 40.7483 36.15 40.9327 36.15 41.125C36.15 41.3173 36.2264 41.5017 36.3623 41.6377C36.4983 41.7736 36.6827 41.85 36.875 41.85ZM45.575 37.5C45.7673 37.5 45.9517 37.4236 46.0876 37.2877C46.2236 37.1517 46.3 36.9673 46.3 36.775C46.3 36.5827 46.2236 36.3983 46.0876 36.2623C45.9517 36.1264 45.7673 36.05 45.575 36.05C45.3827 36.05 45.1983 36.1264 45.0623 36.2623C44.9264 36.3983 44.85 36.5827 44.85 36.775C44.85 36.9673 44.9264 37.1517 45.0623 37.2877C45.1983 37.4236 45.3827 37.5 45.575 37.5Z" fill="#F2B6B6"/>
<path d="M35.34 93H23.34V91.56H24.828V77.64H23.34V76.2H28.332V77.64H26.34V91.56H33.876V89.304H35.34V93ZM42.8355 91.968C42.8355 92.272 42.7315 92.52 42.5235 92.712C42.3155 92.904 42.0835 93 41.8275 93C41.5715 93 41.3395 92.904 41.1315 92.712C40.9235 92.52 40.8195 92.272 40.8195 91.968C40.8195 91.68 40.9235 91.44 41.1315 91.248C41.3395 91.04 41.5715 90.936 41.8275 90.936C42.0835 90.936 42.3155 91.04 42.5235 91.248C42.7315 91.44 42.8355 91.68 42.8355 91.968ZM53.9496 93H48.1416V91.56H49.4136V77.64H48.1416V76.2H53.5416C54.2936 76.2 54.9896 76.28 55.6296 76.44C56.2696 76.6 56.8136 76.848 57.2616 77.184C57.7096 77.52 58.0536 77.96 58.2936 78.504C58.5496 79.032 58.6776 79.664 58.6776 80.4C58.6776 81.392 58.4376 82.264 57.9576 83.016C57.4776 83.768 56.7496 84.28 55.7736 84.552C56.2216 84.648 56.6616 84.808 57.0936 85.032C57.5256 85.256 57.9096 85.544 58.2456 85.896C58.5496 86.248 58.7976 86.656 58.9896 87.12C59.1816 87.584 59.2776 88.104 59.2776 88.68C59.2776 89.4 59.1256 90.032 58.8216 90.576C58.5336 91.104 58.1496 91.544 57.6696 91.896C57.1576 92.264 56.5816 92.544 55.9416 92.736C55.3016 92.912 54.6376 93 53.9496 93ZM50.9256 85.272V91.56H53.8296C54.3736 91.56 54.8776 91.496 55.3416 91.368C55.8216 91.24 56.2456 91.04 56.6136 90.768C56.9656 90.528 57.2456 90.216 57.4536 89.832C57.6616 89.448 57.7656 89 57.7656 88.488C57.7656 87.928 57.6456 87.448 57.4056 87.048C57.1656 86.632 56.8536 86.296 56.4696 86.04C56.0536 85.784 55.5816 85.592 55.0536 85.464C54.5416 85.336 54.0056 85.272 53.4456 85.272H50.9256ZM50.9256 77.64V83.832H53.7816C54.8216 83.832 55.6456 83.536 56.2536 82.944C56.8616 82.336 57.1656 81.552 57.1656 80.592C57.1656 80.048 57.0696 79.584 56.8776 79.2C56.7016 78.816 56.4536 78.512 56.1336 78.288C55.8296 78.064 55.4696 77.904 55.0536 77.808C54.6536 77.696 54.2056 77.64 53.7096 77.64H50.9256Z" fill="#F2B6B6"/>
</svg>
