<svg width="71" height="40" viewBox="0 0 71 40" fill="none" xmlns="http://www.w3.org/2000/svg">
<path d="M52.84 30H40.84V28.56H42.328V14.64H40.84V13.2H45.832V14.64H43.84V28.56H51.376V26.304H52.84V30ZM63.9355 30H58.1275V28.56H59.3995V14.64H58.1275V13.2H63.5275C64.2795 13.2 64.9755 13.28 65.6155 13.44C66.2555 13.6 66.7995 13.848 67.2475 14.184C67.6955 14.52 68.0395 14.96 68.2795 15.504C68.5355 16.032 68.6635 16.664 68.6635 17.4C68.6635 18.392 68.4235 19.264 67.9435 20.016C67.4635 20.768 66.7355 21.28 65.7595 21.552C66.2075 21.648 66.6475 21.808 67.0795 22.032C67.5115 22.256 67.8955 22.544 68.2315 22.896C68.5355 23.248 68.7835 23.656 68.9755 24.12C69.1675 24.584 69.2635 25.104 69.2635 25.68C69.2635 26.4 69.1115 27.032 68.8075 27.576C68.5195 28.104 68.1355 28.544 67.6555 28.896C67.1435 29.264 66.5675 29.544 65.9275 29.736C65.2875 29.912 64.6235 30 63.9355 30ZM60.9115 22.272V28.56H63.8155C64.3595 28.56 64.8635 28.496 65.3275 28.368C65.8075 28.24 66.2315 28.04 66.5995 27.768C66.9515 27.528 67.2315 27.216 67.4395 26.832C67.6475 26.448 67.7515 26 67.7515 25.488C67.7515 24.928 67.6315 24.448 67.3915 24.048C67.1515 23.632 66.8395 23.296 66.4555 23.04C66.0395 22.784 65.5675 22.592 65.0395 22.464C64.5275 22.336 63.9915 22.272 63.4315 22.272H60.9115ZM60.9115 14.64V20.832H63.7675C64.8075 20.832 65.6315 20.536 66.2395 19.944C66.8475 19.336 67.1515 18.552 67.1515 17.592C67.1515 17.048 67.0555 16.584 66.8635 16.2C66.6875 15.816 66.4395 15.512 66.1195 15.288C65.8155 15.064 65.4555 14.904 65.0395 14.808C64.6395 14.696 64.1915 14.64 63.6955 14.64H60.9115Z" fill="#F2B6B6"/>
<path d="M24.9458 36C23.4911 36.0024 22.0864 35.4692 20.9998 34.502V26H24.9998C25.7954 26 26.5585 25.6839 27.1211 25.1213C27.6837 24.5587 27.9998 23.7956 27.9998 23V21.83C28.667 21.5941 29.2293 21.1299 29.5874 20.5195C29.9455 19.9091 30.0762 19.1918 29.9566 18.4943C29.8369 17.7968 29.4745 17.164 28.9334 16.7079C28.3924 16.2518 27.7075 16.0016 26.9998 16.0016C26.2921 16.0016 25.6072 16.2518 25.0661 16.7079C24.525 17.164 24.1626 17.7968 24.043 18.4943C23.9233 19.1918 24.0541 19.9091 24.4121 20.5195C24.7702 21.1299 25.3326 21.5941 25.9998 21.83V23C25.9998 23.2652 25.8944 23.5196 25.7069 23.7071C25.5193 23.8946 25.265 24 24.9998 24H20.9998V4.924C21.6573 4.44642 22.4244 4.14188 23.2304 4.03838C24.0365 3.93489 24.8556 4.03577 25.6125 4.33174C26.3693 4.62771 27.0396 5.10927 27.5616 5.73211C28.0836 6.35495 28.4406 7.09906 28.5998 7.896L28.8498 9.15L29.6618 9.312C30.8848 9.55732 31.9852 10.2185 32.776 11.1832C33.5668 12.1479 33.9992 13.3566 33.9998 14.604V15C33.9998 16.452 33.3798 17.76 32.3898 18.674C33.599 19.2732 34.5916 20.2341 35.2296 21.4233C35.8677 22.6125 36.1196 23.9708 35.9502 25.3097C35.7809 26.6486 35.1988 27.9015 34.2847 28.8943C33.3707 29.8872 32.1701 30.5707 30.8498 30.85L30.7758 31.22C30.5073 32.5683 29.7794 33.7818 28.7163 34.6534C27.6531 35.5251 26.3206 36.001 24.9458 36ZM16.1538 4C17.2178 4 18.1998 4.342 18.9998 4.924V12H17.8298C17.5939 11.3328 17.1297 10.7704 16.5193 10.4124C15.9089 10.0543 15.1915 9.92353 14.494 10.0432C13.7965 10.1629 13.1638 10.5253 12.7077 11.0663C12.2515 11.6074 12.0013 12.2923 12.0013 13C12.0013 13.7077 12.2515 14.3926 12.7077 14.9337C13.1638 15.4747 13.7965 15.8371 14.494 15.9568C15.1915 16.0765 15.9089 15.9457 16.5193 15.5876C17.1297 15.2296 17.5939 14.6672 17.8298 14H18.9998V34.502C18.2173 35.1961 17.2657 35.6715 16.2408 35.8803C15.216 36.0891 14.1541 36.0238 13.1626 35.6911C12.171 35.3584 11.2847 34.7701 10.5931 33.9854C9.90157 33.2007 9.42923 32.2475 9.22377 31.222L9.14977 30.85C8.01702 30.6101 6.96897 30.0719 6.11412 29.2909C5.25927 28.51 4.62869 27.5147 4.28766 26.4082C3.94663 25.3017 3.90755 24.1241 4.17447 22.9975C4.44138 21.8708 5.00458 20.8359 5.80577 20H12.9998C13.265 20 13.5193 20.1054 13.7069 20.2929C13.8944 20.4804 13.9998 20.7348 13.9998 21V22.17C13.3326 22.4059 12.7702 22.8701 12.4121 23.4805C12.0541 24.0909 11.9233 24.8082 12.043 25.5057C12.1626 26.2032 12.525 26.836 13.0661 27.2921C13.6072 27.7482 14.2921 27.9984 14.9998 27.9984C15.7075 27.9984 16.3924 27.7482 16.9334 27.2921C17.4745 26.836 17.8369 26.2032 17.9566 25.5057C18.0762 24.8082 17.9455 24.0909 17.5874 23.4805C17.2293 22.8701 16.667 22.4059 15.9998 22.17V21C15.9998 20.2044 15.6837 19.4413 15.1211 18.8787C14.5585 18.3161 13.7954 18 12.9998 18H6.99977C6.35066 17.1345 5.99977 16.0819 5.99977 15V14.604C6.00036 13.3566 6.43278 12.1479 7.22357 11.1832C8.01436 10.2185 9.11474 9.55732 10.3378 9.312L11.1498 9.152L11.3998 7.896C11.6184 6.79653 12.2119 5.80705 13.0789 5.0965C13.946 4.38595 15.0328 3.99839 16.1538 4ZM14.9998 12C15.265 12 15.5193 12.1054 15.7069 12.2929C15.8944 12.4804 15.9998 12.7348 15.9998 13C15.9998 13.2652 15.8944 13.5196 15.7069 13.7071C15.5193 13.8946 15.265 14 14.9998 14C14.7346 14 14.4802 13.8946 14.2927 13.7071C14.1051 13.5196 13.9998 13.2652 13.9998 13C13.9998 12.7348 14.1051 12.4804 14.2927 12.2929C14.4802 12.1054 14.7346 12 14.9998 12ZM14.9998 26C15.265 26 15.5193 25.8946 15.7069 25.7071C15.8944 25.5196 15.9998 25.2652 15.9998 25C15.9998 24.7348 15.8944 24.4804 15.7069 24.2929C15.5193 24.1054 15.265 24 14.9998 24C14.7346 24 14.4802 24.1054 14.2927 24.2929C14.1051 24.4804 13.9998 24.7348 13.9998 25C13.9998 25.2652 14.1051 25.5196 14.2927 25.7071C14.4802 25.8946 14.7346 26 14.9998 26ZM26.9998 20C27.265 20 27.5193 19.8946 27.7069 19.7071C27.8944 19.5196 27.9998 19.2652 27.9998 19C27.9998 18.7348 27.8944 18.4804 27.7069 18.2929C27.5193 18.1054 27.265 18 26.9998 18C26.7346 18 26.4802 18.1054 26.2927 18.2929C26.1051 18.4804 25.9998 18.7348 25.9998 19C25.9998 19.2652 26.1051 19.5196 26.2927 19.7071C26.4802 19.8946 26.7346 20 26.9998 20Z" fill="#F2B6B6"/>
</svg>
