<svg width="226" height="206" viewBox="0 0 226 206" fill="none" xmlns="http://www.w3.org/2000/svg">
<g clip-path="url(#clip0_119_6)">
<path d="M225.808 91.8204C224.964 85.2562 220.673 77.3963 211.174 75.7098C203.164 74.3044 195.945 76.9918 187.03 81.0332C181.846 83.4018 112.99 122.338 112.99 122.338C44.3364 83.6383 30.0254 73.0601 14.8254 75.7269C5.3271 77.3963 1.03543 85.2562 0.19207 91.8376C-2.22078 73.8828 18.4268 53.9536 46.9186 69.1353C69.9171 81.8935 87.8849 91.8856 112.99 105.85L179.091 69.1147C207.56 53.9399 228.221 73.8657 225.808 91.8204ZM216.039 87.995C210.08 84.2039 199.071 84.934 179.075 96.6536C159.824 107.928 112.99 134.74 112.99 134.74C101.095 127.541 66.166 107.928 46.9251 96.6536C26.932 84.934 15.9228 84.2039 9.96393 87.995C-6.34964 98.3778 6.62633 116.819 6.62633 116.819C1.56619 106.005 8.81124 91.1109 30.1622 103.146C52.0634 115.517 112.99 151.265 112.99 151.265C112.99 151.265 173.937 115.517 195.838 103.146C217.189 91.104 224.427 106.015 219.374 116.819C219.374 116.819 232.35 98.3778 216.026 87.995H216.039ZM163.986 128.755L157.076 139.484C149.564 151.138 153.247 161.905 154.797 168.353L190.364 113.117C182.758 117.539 173.432 123.082 163.986 128.755ZM213.692 105.658C212.363 104.935 210.328 104.887 208.807 105.017L164.914 171.733C157.297 183.298 161.006 194.116 162.497 200.365L212.529 124.336C219.95 111.486 216.046 106.947 213.692 105.658ZM62.0143 128.755C52.5713 123.082 43.2423 117.539 35.6391 113.121L71.2001 168.353C72.7012 162.114 76.4914 151.238 68.9207 139.484L62.0143 128.755ZM17.1764 105.017C15.6721 104.887 13.6369 104.935 12.2921 105.658C9.94114 106.93 6.03695 111.486 13.4578 124.347L63.4959 200.375C64.9417 194.356 68.7547 183.404 61.0798 171.743L17.1764 105.017ZM42.6106 55.8115C54.219 59.1741 61.7473 65.1693 66.0813 67.1712L112.99 94.1273L159.919 67.1849C164.253 65.1831 171.781 59.1879 183.389 55.8252C198.498 51.4445 210.129 54.5398 216.844 62.4477C216.844 62.4477 199.341 26.7986 155.135 53.6725L138.323 63.2018C136.673 51.112 134.475 35.5395 132.824 25.7635H120.805C122.645 36.1257 125.426 56.1234 127.233 69.4849L112.99 77.5437L99.4737 69.8826C101.476 55.9589 104.518 34.6929 105.547 26.8158C106.66 18.3731 112.919 18.853 116.041 18.853C118.363 18.853 124.27 18.8907 128.838 18.853C133.882 18.805 138.708 17.6019 142.078 13.5125C146.562 8.07605 144.435 1.79976 142.729 -0.00325775C142.762 0.106432 141.212 6.45127 129.981 6.45127C126.487 6.45127 114.908 6.45127 111.86 6.45127C105.283 6.45127 100.385 9.41974 97.3441 14.3112H91.636C77.0091 14.3112 77.0091 29.6369 77.0091 29.6369H93.2446C92.0528 38.3263 89.9884 52.8396 88.4352 63.6166L70.868 53.676C26.6585 26.7781 9.1564 62.434 9.1564 62.434C15.8707 54.5261 27.5018 51.417 42.6106 55.8115Z" fill="#D8C1F3"/>
<path d="M83.4303 181.121V187.384H86.9111V193.554H83.4303V195.394C83.4303 201.907 79.6335 205.993 74.5506 205.993H73.5737V199.779H74.5506C76.2568 199.779 78.4841 198.815 78.4841 195.401V168.647H73.59L78.4743 162.477H83.4205V174.917H86.9014V181.135L83.4303 181.121Z" fill="#D8C1F3"/>
<path d="M93.2834 187.384H111.564V193.554H83.4302V187.384H88.3373V181.121H83.4302V174.903H88.3373V173.062C88.3373 166.55 92.134 162.464 97.2528 162.464H108.083V174.903H111.564V181.121H93.2834V187.384ZM96.9727 158.127L93.0392 153.178L96.9727 148.183L100.701 152.88L104.39 148.194L108.324 153.188L104.39 158.138L100.701 153.493L96.9727 158.127ZM93.2834 174.903H103.173V168.682H97.2528C95.5107 168.682 93.2834 169.645 93.2834 173.062V174.903ZM95.9991 153.178L96.976 154.405L97.9854 153.178L96.976 151.906L95.9991 153.178ZM103.381 153.178L104.39 154.405L105.4 153.178L104.39 151.906L103.381 153.178Z" fill="#D8C1F3"/>
<path d="M152.511 173.631V181.121H117.936V187.384H152.511V193.554H108.083V187.384H113.026V181.121H108.083V174.903H113.026V162.477L117.936 156.256V162.477H144.084C149.274 162.477 152.511 167.194 152.511 173.631ZM147.568 173.631C147.568 171.441 146.803 168.637 144.084 168.637H117.936V174.903H147.568V173.631Z" fill="#D8C1F3"/>
</g>
<defs>
<clipPath id="clip0_119_6">
<rect width="226" height="206" fill="white"/>
</clipPath>
</defs>
</svg>
