<svg width="34" height="34" viewBox="0 0 34 34" fill="none" xmlns="http://www.w3.org/2000/svg">
<rect width="34" height="34" rx="17" fill="#74D4CA"/>
<path d="M17 32.2292C25.4109 32.2292 32.2292 25.4108 32.2292 17C32.2292 8.58917 25.4109 1.77084 17 1.77084C8.5892 1.77084 1.77087 8.58917 1.77087 17C1.77087 25.4108 8.5892 32.2292 17 32.2292Z" stroke="#FF4400" stroke-opacity="0.75" stroke-linecap="round" stroke-linejoin="round"/>
<path d="M31.2375 22.3833C29.7635 19.9353 27.63 17.9519 25.0811 16.6601C22.5323 15.3683 19.6712 14.8203 16.8254 15.079C13.9796 15.3378 11.2642 16.3926 8.99006 18.1229C6.71594 19.8531 4.97503 22.1888 3.96667 24.8625" stroke="#FF4400" stroke-opacity="0.75" stroke-linecap="round" stroke-linejoin="round"/>
<path d="M9.56248 30.3167C9.20832 28.6875 9.42082 27.625 10.7667 26.6333C11.1979 26.3136 11.5196 25.8682 11.6875 25.3583C11.7611 25.1451 11.8822 24.9513 12.0418 24.7918C12.2013 24.6323 12.395 24.5111 12.6083 24.4375C13.5309 23.9846 14.5802 23.8597 15.5833 24.0833C16.6458 24.5083 17.1417 25.3583 17.9917 25.7125C18.5051 25.9458 19.089 25.9712 19.6208 25.7833C21.1083 25.075 22.0292 25.925 22.5958 26.9167C23.253 27.9838 23.9869 29.0018 24.7917 29.9625" stroke="#FF4400" stroke-opacity="0.75"/>
<path d="M21.0375 25.5708C20.9666 24.2958 21.3916 23.8 20.2583 23.8C19.7625 23.8 19.0541 23.8 18.8416 23.4458C18.5583 22.7375 18.275 22.7375 17.7791 22.5958C17.3616 22.3929 16.8931 22.319 16.4333 22.3833C16.2208 22.4542 16.6458 23.5167 16.0791 23.4458C15.7958 23.375 15.4416 22.1708 14.9458 21.8167C14.6549 21.6873 14.3327 21.6452 14.0183 21.6955C13.704 21.7458 13.411 21.8863 13.175 22.1C12.1833 23.0208 11.5458 23.2333 10.9083 22.8792C10.4833 22.6667 10.6958 21.3917 10.9791 21.1792C11.6166 20.7542 11.9 21.1792 12.3958 20.4708C12.5375 20.2583 12.1833 19.7625 12.5375 19.125C12.8916 18.4875 14.3083 19.125 14.875 18.3458C15.4416 17.5667 16.8583 16.4333 17.9916 17.2125C18.2078 17.385 18.446 17.5279 18.7 17.6375C18.9125 17.7792 19.125 17.2125 19.4083 16.9292C19.6916 16.6458 19.8333 16.7167 20.3291 16.7167C21.1619 16.4948 21.9691 16.1861 22.7375 15.7958" stroke="#FF4400" stroke-opacity="0.75"/>
<path d="M20.0458 9.42084L18.7708 10.1292L18.0624 11.4042L17.3541 10.1292L16.0791 9.42084L17.3541 8.71251L18.0624 7.43751L18.7708 8.71251L20.0458 9.42084ZM13.2458 7.0125L12.3249 7.50834L11.8291 8.42917L11.3333 7.50834L10.4124 7.0125L11.3333 6.51667L11.8291 5.66667L12.3249 6.58751L13.2458 7.0125ZM26.4916 11.4042L25.7833 11.7583L25.4291 12.4667L25.0749 11.7583L24.3666 11.4042L25.0749 11.05L25.4291 10.3417L25.7833 11.05L26.4916 11.4042ZM7.29578 13.9542L6.58744 14.3083L6.23328 15.0167L5.87911 14.3083L5.17078 13.9542L5.87911 13.6L6.23328 12.8917L6.58744 13.6L7.29578 13.9542Z" stroke="#FF4400" stroke-opacity="0.75" stroke-linecap="round" stroke-linejoin="round"/>
</svg>
